<?xml version="1.0" encoding="UTF-8"?>
<svg id="Layer_1" data-name="Layer 1" xmlns="http://www.w3.org/2000/svg" viewBox="0 0 266 372.54">
  <path d="M119.4,.54c-23.3,2.6-52.2,12.5-71,24.1l-3.4,2.1,2.1,3.6c1.2,2.1,2.5,4.1,2.9,4.5s4-1.1,8-3.4c14.3-8.1,33.7-15.2,50.5-18.5,11.3-2.2,39.4-2.5,50.5-.5,17.7,3.2,37.1,10.5,53.2,20,4.8,2.8,8.9,5.1,9.1,5.1,.5,0,5.7-7.7,5.7-8.4,0-.6-12.9-8-21.7-12.5-14-7-27.1-11.3-44-14.5-10.1-1.9-32.2-2.8-41.9-1.6Z"/>
  <path d="M114.4,24.54c-11,2.2-24.6,6.7-49.2,16.4-21.2,8.4-28.1,10.6-32.9,10.6h-3.3v11h3.3c5.3,0,16.5-3.5,37.4-11.9,48-19.1,62.3-21.2,91.6-13.6,8.9,2.3,23.8,7.4,32.1,10.9,2.1,.9,4.2,1.4,4.6,1.1,.5-.3,1-.1,1.2,.3,.3,.9,16.3,7.3,26.3,10.7,2.8,.9,7.1,1.9,9.8,2.2l4.7,.6v-11l-4.8-.6c-2.7-.3-10.9-2.9-18.3-5.8-49.6-19.2-63.3-23-83.4-22.8-5.5,0-14.1,.9-19.1,1.9Z"/>
  <path d="M121.5,45.14c-22.6,3.5-36.3,8.5-73.3,26.7-11.6,5.8-23.1,10.8-25.4,11.2-7.5,1.1-7.3,1-7,6.5,.4,4.8,.5,5,3.4,5,5.3,0,17.3-4.8,36.8-14.5,29.3-14.7,44.2-20.4,60.5-23,27-4.4,47.6,.3,85,19.4,25.5,13.1,35.4,17,44.8,17.8l6.9,.6-.5-4.4c-.3-2.4-.6-5-.6-5.7-.1-.7-1.7-1.2-4.4-1.2-7.1,0-12.9-2.3-39.7-15.8-34.4-17.3-48.8-21.9-71.5-22.6-6.6-.3-13.3-.2-15,0Z"/>
  <path d="M124.6,66.54c-10.8,1.3-21.4,3.9-30.7,7.5-11.2,4.3-16.3,6.9-34.9,18-24.7,14.7-32,17.9-43.6,19.1l-6.4,.7v10.3l8.3-.7c12.6-1.1,20-4.3,46-19.6,29.7-17.5,46.2-23.7,66.8-25,22.3-1.4,39.9,4,69.8,21.4,27.5,16,37.4,20.1,50.9,21l8.2,.6v-10.1l-6.7-.7c-12-1.2-22.4-5.6-43.7-18.2-13.5-8-26.5-14.6-35.3-17.9-14.6-5.5-34.6-8.1-48.7-6.4Z"/>
  <path d="M123,96.64c-4.1,.5-11.8,2.1-17,3.5-15.1,4.2-49,21.3-48.2,24.4,.1,.6-.2,.8-.8,.5-.6-.4-5.2,1.8-10.3,4.8-18.6,11-30.1,15.7-38.7,15.7H3v11.3l6.3-.7c14.8-1.5,29.7-8.2,54.7-24.4,8.8-5.8,32.9-17.6,40.8-20.1,34.2-10.7,57.2-5.8,99.7,21.1,27.2,17.2,37.9,22,52.3,23.4l7.2,.7v-11.3h-5.1c-10.6,0-23.3-5.7-49.8-22.5-26-16.4-40.9-23-59.2-26-10.2-1.6-15.4-1.7-26.9-.4Z"/>
  <path d="M117.6,130.04c-17.5,3.6-34.1,11.5-57.6,27.4-27.6,18.6-29.4,19.8-36.5,23.4-7.5,3.8-13.8,5.6-19.7,5.7H0v11.3l6.3-.6c12.7-1.2,23.3-6.2,47.2-22.6,7.7-5.2,17.6-11.9,22-14.7,4.4-2.9,8.6-5.8,9.3-6.4,.6-.6,1.2-.8,1.2-.5s3-1,6.8-2.9c15.3-7.8,26.5-10.6,42.5-10.6,22.9,0,37,6.6,81.4,38.2,17.7,12.6,34,19.7,45.6,19.8h3.7v-11h-4.4c-10.4,0-24.9-7.2-46.6-23-24.4-17.8-40.5-26.9-56-31.6-10.6-3.3-30.5-4.2-41.4-1.9Z"/>
  <path d="M116,167.14c-19.1,4.1-36.7,13-65.1,33.1-22.6,16-34.4,22.1-45.1,23.1l-5.8,.5v10.8l5.8-.6c12.7-1.5,24.5-6.8,42.3-18.9,33.6-23,41.7-27.8,55.9-33.4,8-3.2,23.3-6.2,31.1-6.2s21,3,30.5,7c13.3,5.7,16.6,7.7,50.1,31.2,19.5,13.6,30.7,18.7,44.6,20.3l5.7,.6v-11.1h-3.3c-7.5,0-20.4-4.9-31.1-11.8-2.3-1.5-10.3-7.1-18-12.5-38.2-27.1-53.8-33.8-79.1-33.6-6.6,0-14.9,.7-18.5,1.5Z"/>
  <path d="M115.5,210.94c-12.7,3.3-24.7,8.3-49.5,20.3-36.6,17.8-51,23.3-60.7,23.3H2v10.3l7.8-.6c12.7-.9,16.8-2.5,71.7-28.5,30.4-14.4,45.7-18.5,61.1-16.3,4.6,.6,8.8,.9,9.3,.7,.5-.3,1.4,.1,2.1,.8,.6,.8,2.6,1.8,4.3,2.1,6.2,1.4,25.5,9.9,50.7,22.5,31.4,15.7,38.2,18.4,48.5,19.2l4,.3,.3-5.1,.3-5.1-4.5-.6c-8-1.1-16.8-4.8-44.8-18.7-43-21.4-59.3-27-78.2-27-7.2,.1-12.7,.8-19.1,2.4Z"/>
  <path d="M117.3,256.04c-14.6,2.6-30.5,7.8-59.3,19.2-24.4,9.6-46.4,16.3-54,16.3-1.7,0-2,.6-2,4.9,0,2.8,.3,5.2,.8,5.4,1.3,.7,17.6-2.2,25.7-4.6,4.4-1.4,18.4-6.4,31-11.2,32.9-12.6,37.9-14.3,48.5-17,30.6-7.7,44.7-5.4,98.9,16.7,30.3,12.4,37.6,14.8,47.4,15.5l7.7,.6v-5.2c0-4.9-.1-5.1-2.7-5.1-5.2,0-19.1-3.9-31.4-8.8-6.8-2.8-19.8-8-28.8-11.6-38.5-15.5-58.8-19.3-81.8-15.1Z"/>
  <path d="M113,301.24c-33.5,3.3-62.7,10.8-96.5,24.8-4.9,2.1-9.1,3.8-9.3,4-.3,.3,3.6,9.5,4.1,9.5,.3,0,6.6-2.5,14-5.4,77.2-31,146.2-30.2,221,2.6,3.8,1.6,7.1,2.7,7.4,2.4,.4-.3,1.4-2.4,2.4-4.5,2.1-4.8,2.5-4.4-10.6-9.9-29.8-12.4-61.4-20.6-88.5-23.1-10.7-1-35.9-1.2-44-.4Z"/>
  <path d="M95.5,338.04c-23.4,2.8-47.7,8.3-71.3,16.1-7.5,2.4-13.7,4.5-13.9,4.7-.5,.6,2.8,9.7,3.6,9.7,.4,0,6.1-1.8,12.6-4,38.3-12.9,82.8-19.3,118.5-17.1,34.6,2.2,60.3,8.1,91.2,20.7,5.9,2.4,11.1,4.4,11.6,4.4,1.3,0,4.4-8.2,3.4-9.1-.4-.4-5.4-2.7-11.2-5.2-20.7-8.8-45.5-15.7-69.2-19.3-14.7-2.2-59.5-2.7-75.3-.9Z"/>
</svg>