<?xml version="1.0" encoding="UTF-8"?>
<svg id="Layer_1" data-name="Layer 1" xmlns="http://www.w3.org/2000/svg" viewBox="0 0 258.33 398.91">
  <path d="M102.53,.91C66.73,6.91,38.43,34.21,21.13,79.31c-3.9,10.2-10.8,36.2-11.8,44.7-.7,5.3-.6,5.6,1.7,6.2,6.2,1.7,6.2,1.8,9.2-13.1C31.73,60.01,59.33,21.91,96.73,11.71c10.1-2.8,34.3-3,47.3-.4,36.1,7,61.4,25.8,75.3,55.8,5.6,12.2,11.9,39.2,16.1,68.8,3,21.8,3,70,0,94-2.4,18.9-9.2,45.1-16.6,64.1-12.4,32.3-35.5,66.2-58.7,86.4l-8,6.9,3,3.8,3,3.7,7.7-6.9c72.7-65.6,98.8-174.7,70.9-296.2-5.1-22.1-10.4-34.6-20.8-48.5C195.13,15.41,159.73-.39,118.83,0c-6.3,.1-13.7,.5-16.3,.9Z"/>
  <path d="M107.83,19.61c-26.9,4.5-48.3,20.7-58.9,44.6-2.9,6.3-3.8,9.7-9,31.8-5.8,24.4-14,46.4-22.1,59.3-3.9,6.2-11.9,14.6-13.9,14.6-.5,0-.3,2,.6,4.5,.8,2.5,1.8,4.5,2.2,4.5,1.9,0,10-6.1,12.8-9.6,13.1-16.6,22.4-40,31.2-78.4,5.4-23.3,9.3-31.3,20.6-42.6,6.7-6.8,9.7-9,17.6-12.7,14.7-7.1,28.8-9.1,44.7-6.3,18.6,3.2,34.6,11.8,47.4,25.5,14.9,15.9,20,28.6,25.2,62.3,4,25.8,4.8,35.6,5.1,63.3,.3,25.1-.1,34.5-2.5,50.5-9.3,63.1-34.5,107.3-77.8,136.3-8.9,6-22.8,13.4-30.5,16.2-2.6,1-5,2.2-5.3,2.7-.9,1.4,1.7,7.8,3.2,7.8,.7,0,5.8-2,11.1-4.4,64-28.5,100.8-84.5,109.9-167.5,2.3-21.1,1.5-66.4-1.5-89.8-5.8-44.7-11-60.8-25.5-78.9-13.6-17-32.3-28.2-54.9-32.8-7-1.5-23.4-2-29.7-.9Z"/>
  <path d="M106.33,55.81c-17.6,5-32.7,20.3-39.4,39.8-1.1,3.4-3.4,11.5-5,18-12.9,52.3-34.8,89.6-56.4,96.7-1.6,.5-1.8,1.2-1.2,4.9,.4,2.3,.9,4.4,1.1,4.6,.7,.7,9.9-3.2,14-6,7.1-4.9,18.7-18.2,25.3-29.3,10.9-18.3,17.9-36.5,26.1-67.8,5.8-22,10.2-31.6,18.3-39.7,24.9-25,66.8-15.6,84.3,19,6.9,13.9,8.4,24.4,10,70.9,2.5,75.9-15.3,129.4-55.5,167.2-22.8,21.3-53.3,38.6-90.6,51.3-7.7,2.7-14.3,5.1-14.7,5.4-1.2,1,1.4,8.1,2.9,8.1,.7,0,5.9-1.5,11.5-3.4,43.4-14.4,79.1-35.3,103.3-60.7,28.9-30.2,45-66.9,50.7-115.4,1.6-13.8,1.6-70.3,0-90.5-1.9-22.9-6.9-37.2-18-50.6-9.1-11.1-24.3-20.6-37-23.3-7.8-1.6-22.7-1.2-29.7,.8Z"/>
  <path d="M120.23,92.31c-20.5,5.1-35,27.6-40.4,62.6-1.4,9.2-6.2,25.3-10.1,33.9-7.8,17.1-24.5,36.7-40,46.7-7.9,5.2-21.8,11.8-26.5,12.8l-3.1,.7,1,4.4c.6,2.5,1.6,4.5,2.3,4.5,2,0,13.1-4.3,19.4-7.5,17.4-8.8,34.1-23.5,44.9-39.4,10.7-15.7,17.5-33.3,21.5-55.6,4-21.8,9.7-36,18-44.6,1.9-2,3.2-4,2.8-4.4s-.2-.5,.3-.4c.6,.2,3.4-1,6.4-2.5,4.7-2.4,6.4-2.8,11.7-2.4,7.5,.5,12.5,3.4,18.3,10.8,8.4,10.6,11,23,11.1,51.7,.1,52.5-7.3,87.9-24.6,117.7-21.3,36.7-58.7,64.2-110.4,81.1-4.7,1.5-8.8,3-9.2,3.4-.4,.3-.2,2.5,.3,4.8l1.1,4.1,12.6-4.3c25.5-8.6,43.5-17.3,61.8-29.7,43-29.1,67.4-70.3,75.1-127,2.6-19.7,2.6-76.4,0-85.8-3.3-11.5-7.5-19-14.7-26.1-9.2-9.1-18.9-12.2-29.6-9.5Z"/>
  <path d="M116.13,146.91c-4.8,1.5-13.6,10.1-17.2,16.9-4.5,8.5-6.9,15.9-9.1,28.6-3.8,20.9-8.3,30.4-21.9,46.3-12.6,14.8-38.1,32.6-60.6,42.4-3.8,1.7-7.1,3.2-7.3,3.3s.5,2.1,1.4,4.4c2,5,1.4,5.1,17.6-3,26-13,45.5-27.8,59.8-45.6,11.3-14,16.6-26,19.9-44.8,2.6-14.2,3.4-17.1,7.3-25,5-10.2,13.2-16.7,18.6-14.8,3.4,1.2,7.2,5.7,8.9,10.7,2.3,6.7,2.3,25.4-.1,38.8-3.5,19.8-11.7,41.9-21.4,58.2-22,36.5-57.8,63.9-99.4,76-3.2,.9-5.8,1.9-5.8,2.3,0,.3,.5,2.3,1.2,4.4,1.3,4.5,.7,4.5,16.3-.8,19-6.6,41.9-19.3,56.5-31.3,28.8-23.8,50.9-59.3,59.1-95,8.4-36.2,5.9-60.5-7.1-69.5-4.5-3.1-11.3-4.1-16.7-2.5Z"/>
  <path d="M113.33,186.41c-.2,.5-.8,4.8-1.5,9.3-2.7,19.8-12.9,44.4-25.6,61.9-9.2,12.8-26.3,29-40.4,38.5-10.8,7.2-29.8,17.1-38.2,19.8-4.1,1.2-4.4,2-2.7,6.8,1.3,3.9,2.3,3.7,15.4-2,30.8-13.6,53.9-31.6,73-57,3-4,5.5-7.6,5.5-8s1.2-2.4,2.6-4.5c8-11.7,16.5-34.9,19.4-52.8,1-6,1.6-11.3,1.4-11.6-.7-1.2-8.6-1.5-8.9-.4Z"/>
  <path d="M249.03,270.71c-2,20.4-6.9,36-18.4,58.6-9.2,18-19.3,32.7-37.2,54l-3.9,4.7,3.2,3.2,3.2,3.2,5-5.5c2.8-3,9.2-11,14.3-17.8,26.6-35.4,42.5-73.4,43-103.2l.1-8.5-4.1-.3-4.1-.3-1.1,11.9Z"/>
</svg>