<?xml version="1.0" encoding="UTF-8"?>
<svg id="Layer_1" data-name="Layer 1" xmlns="http://www.w3.org/2000/svg" viewBox="0 0 269.8 392.82">
  <path d="M120.1,1.52C79.4,8.92,43.7,41.12,25.8,86.72c-8.1,20.7-11.8,38.5-12.6,62.3-2.1,56.1,20.4,108.4,59.3,137.9,8.7,6.7,26.6,15.5,36.8,18.2,11.4,3,32.9,3.7,45,1.4,50-9.4,90.3-56.1,102.6-119,2.1-10.4,2.4-15,2.4-34.5,0-20.9-.2-23.5-2.9-36.5-6.9-33.5-19.9-59.3-41.1-81.3C189,7.82,153.8-4.58,120.1,1.52Zm41.7,12.4c27.4,7.9,51.4,28.8,68.4,59.6,2.9,5.2,5.6,9.2,6,8.8s.4,0,.1,.8c-.3,.9,.4,4,1.6,7,12.2,30.7,14.5,73,5.8,107.1-4.4,17.4-12.5,35.8-22.2,50.2-5.6,8.3-7,10-16.7,19.7-9.7,9.6-17,14.9-28.6,20.7-44.7,22.5-95.5,5.9-126.6-41.2-11.1-16.9-19.5-38.3-23.5-59.6-2.5-13.4-2.5-49.7,0-62.7,6.3-32.9,19-58.9,39-80,16.6-17.3,33.3-27.2,53.7-31.8,9.7-2.2,33.1-1.4,43,1.4Z"/>
  <path d="M130,26.02c-30.1,4.1-57.7,27.1-73.7,61.4-11.9,25.5-17.2,55.9-14.7,83.9,3.9,43,21.5,78.8,48.6,99,15.8,11.7,28.6,16.1,47.6,16.1,14.7,.1,22.4-1.8,35.8-9,27.4-14.4,48.4-44.2,57.6-81.4,4-16.5,4.9-26.4,4.3-47.5-.6-20.3-2.4-30.6-8.2-48-12.4-37.2-40.5-66.1-70.8-72.9-8.6-2-19-2.6-26.5-1.6Zm29.3,13.5c27,8.9,48.7,34.3,59.4,69.2,13,42.4,7,91.6-15.4,126.4-16.9,26.2-40.5,40.9-65.7,40.9-41.5,0-76.8-40.5-84.3-96.7-8.2-61.5,18.8-120.7,63.3-138.8,12.9-5.3,28.9-5.6,42.7-1Z"/>
  <path d="M133.5,57.12c-29,4.2-54.5,36.9-61.3,78.7-2,12.3-2,33.8,0,46.7,5.4,35.4,25.1,64.4,50.2,73.8,8.4,3.1,25.4,3.1,33.5-.1,43.6-17.2,65.9-85.2,46.9-143.2-12.4-37.8-40-60.1-69.3-55.9Zm21.8,13c20.9,7.8,38,35.5,42.5,68.6,1.6,11.6,.8,33.8-1.5,44.8-4.7,22.2-15.5,42.6-28.1,53.2-2.7,2.2-7.8,5.5-11.4,7.3-5.5,2.8-7.9,3.4-15.1,3.8-10.7,.5-17-1.2-25.9-7-21.9-14.5-36.5-51.1-34.7-87.3,2.1-43.4,24.1-79.7,51.7-85.5,6.1-1.2,16-.3,22.5,2.1Z"/>
  <path d="M130.8,78.92c-17.8,5.5-32.7,26.2-39.3,54.5-2.7,11.9-3,38-.5,50.2,7.4,36.1,29.6,59,52.5,54.4,11.4-2.3,20.5-9.3,29-22.3,8.6-13,13.4-28.1,15.4-48.1,4-39.2-12.6-78.4-37-87.7-5.3-2-15.2-2.4-20.1-1Zm20.8,13.4c22.7,13.7,32.9,61.3,21.1,98.4-1.7,5.4-3.6,10.4-4.1,11-.7,.9-.6,1.8,.3,3,1.1,1.5,1.1,1.6,0,.6s-2-.1-4.8,4.5c-1.9,3.1-4.9,7.2-6.6,9-4.6,4.8-14,9.2-19.6,9.2-14.5,0-28.9-16.8-35.1-41-2.6-9.8-3.8-33.7-2.2-43.2,.6-4,.5-6.1-.2-6.9-.8-.9-.8-1,.1-.5,.7,.4,1.5-1.2,2.3-4.7,3.5-14.8,12.4-31,20.6-37.2,9.3-7.1,18.9-7.9,28.2-2.2Z"/>
  <path d="M131,113.72c-11.6,5.7-20.2,23.6-20.2,41.8,.1,18.1,11.4,40,23.4,45,10.6,4.5,22.2-.4,32.8-13.9l3.9-4.9-3.5-2.3c-1.9-1.3-3.9-2.4-4.3-2.4-.4,.1-2.3,2.1-4.1,4.6-4.1,5.5-10.3,10.1-14.8,11-11.6,2.2-23.7-17.3-23.8-38.1-.1-11.9,2.8-20.5,9-27.4,6.9-7.7,13.1-8.1,20.4-1.5,5.9,5.3,7.3,10.1,6.8,23.1-.6,15.1-4,21.3-11.8,21.3-2.8,0-6-5.3-6.7-11-.5-4.6-.8-5-3.2-5-1.4,0-3.6,.3-4.8,.6-2.4,.7-2.4,2.3,0,11.3,1.5,5.5,7.3,12.4,9.8,11.8,1.1-.3,1.7-.2,1.4,.3-.3,.4,.9,1,2.5,1.2,8,1.2,17.6-6.6,20.6-16.8,2.7-9,2.5-25.2-.4-32.5-2.5-6.3-9.9-14-15.7-16.5-4.5-1.9-13.2-1.8-17.3,.3Z"/>
  <path d="M3.6,234.72L0,236.22l1.8,5.3c2.8,8.1,10.4,22.8,16.7,32.4,6.9,10.5,26.9,30.8,36.8,37.3,33.1,21.9,70.6,29.2,109.1,21.2,35.5-7.3,69-30.3,89.5-61.4,5.3-7.9,15.9-28.3,15.9-30.4,0-1.2-7.7-4.4-8.3-3.5l-6,12c-13.8,28-35.5,50.2-62.1,63.6-9.5,4.8-25.9,10-36.9,11.8-5.1,.8-14.8,1.5-21.7,1.5-37.2,0-67.8-13.1-95.3-40.7-9.7-9.7-21.4-28.3-27.8-44.1-1.8-4.5-3.5-8.2-3.8-8.1-.4,.1-2.2,.8-4.3,1.6Z"/>
  <path d="M6.9,311.42l-3.2,3.3,3.7,3.3c5.3,4.6,12.3,8.9,24,14.8,43.3,21.7,89.6,33.1,118.9,29.3,30.1-4,70.9-18.7,98-35.4,7.1-4.4,15.5-10.8,15.5-11.8,0-.5-1.2-2.2-2.7-3.9l-2.8-3.1-3.9,3.3c-11.9,9.9-40.3,23.8-64.6,31.8-38.3,12.7-59.7,13.5-95.9,3.9-30.2-8.1-65.1-23.6-79.7-35.5l-4.1-3.3-3.2,3.3Z"/>
  <path d="M13.1,362.02l-2.2,4,4.7,2.4c26.8,13.3,90.2,25.6,125.2,24.3,26.3-1.1,64.1-9,102-21.3,13.8-4.5,13.4-4.2,11.9-9.3-.7-2.2-1.4-4.1-1.6-4.1s-1.9,.6-3.8,1.4c-5.1,2.2-28.3,9.1-43.5,13-35.2,9.1-61.4,12.4-84.7,10.6-36.3-2.7-81.2-12.9-100.5-22.6-2.6-1.3-4.9-2.4-5-2.4-.2,0-1.3,1.8-2.5,4Z"/>
</svg>