<?xml version="1.0" encoding="UTF-8"?>
<svg id="Layer_3" data-name="Layer 3" xmlns="http://www.w3.org/2000/svg" viewBox="0 0 132 132">
  <rect x="67.1" y="66.44" width="3" height="20.43" transform="translate(-33.66 87.75) rotate(-54.37)"/>
  <path d="M121.22,132h10.5c-42.15-13.48-78.19-13.45-109.52,0h8.19c26.54-9.46,56.55-9.47,90.83,0Z"/>
  <path d="M23.35,93.16l-5.42,2.69,1.34,2.69,5.41-2.69c25.89-12.86,35.57-17.68,38.66-28.23,1.83-6.24,1.17-14.05,.06-26.99-.85-9.93-1.97-23.04-2.32-40.63h-3c.35,17.71,1.48,30.9,2.33,40.89,1.08,12.59,1.72,20.19,.05,25.89-2.72,9.29-12.08,13.95-37.12,26.38Z"/>
  <path d="M132,121.93v-3.61C87.39,88.48,82.4,83.54,74.11,0h-3.01c8.55,86.26,13.58,90.3,60.91,121.93Z"/>
  <path d="M132,108.22v-3.64C105.02,85.92,89.96,51.53,86.18,0h-3.01c3.91,53.72,19.93,89.29,48.83,108.22Z"/>
  <path d="M132,84.04c-15.56-19.21-25.85-47.35-30.71-84.04h-3.03c5.14,39.23,16.45,68.94,33.73,88.7v-4.66Z"/>
  <path d="M132,56.4c-7.37-15.75-13.33-36.04-18.45-56.4h-3.09c5.99,23.94,12.79,46.74,21.55,63.28v-6.87Z"/>
  <path d="M16.95,87.39c28.27-13.51,39.97-19.1,37.34-57.99l-2.99,.2c2.49,36.86-7.89,41.82-35.64,55.08-4.76,2.28-9.97,4.77-15.66,7.67v3.37c6.2-3.2,11.83-5.89,16.95-8.33Z"/>
  <path d="M45.3,99.66c14.65-6.61,20.71-9.35,60.34,3.46l.92-2.85c-40.73-13.17-47.55-10.09-62.5-3.34-8.78,3.96-20.53,9.26-44.06,13.46v3.05c24.24-4.27,36.31-9.71,45.3-13.77Z"/>
  <path d="M0,124.16v3.2c26.18-9.43,49.09-14.56,68.15-15.26,24.15-.87,41.45,5.48,51.44,18.9l2.41-1.79c-23.31-31.28-77.57-20.9-122-5.04Z"/>
  <path d="M3.73,80.59c16.06-7.62,27.66-13.12,35.06-27.73,5.49-10.85,8.79-26.95,10.55-52.86h-2.99c-3.99,58.94-15.78,64.54-43.9,77.87-.81,.38-1.62,.77-2.45,1.16v3.32c1.26-.6,2.5-1.19,3.73-1.78Z"/>
  <path d="M38.94,0h-3c-.39,26.72-14.53,51.58-35.94,63.69v3.42C23.15,54.79,38.54,28.4,38.94,0Z"/>
  <path d="M26.54,0h-3.03C20.33,16.98,12.58,31.02,0,42.53v4C14.24,34.19,23.13,18.59,26.54,0Z"/>
</svg>