<?xml version="1.0" encoding="UTF-8"?>
<svg id="Layer_2" data-name="Layer 2" xmlns="http://www.w3.org/2000/svg" viewBox="0 0 132 132">
  <path d="M5.73,115.58c.04-13.78,.08-28.03-.13-42.05-.4-21.53,7.74-38.71,24.19-51.04,19.3-14.6,42.35-16.71,63.22-5.78,22.1,11.53,33.4,30.66,33.6,56.86,.11,11.19,.1,22.58,.08,33.58-.01,8.14-.02,16.55,.02,24.85h2.59c-.04-8.29-.03-16.7-.02-24.85,.02-11.02,.03-22.41-.08-33.61-.21-27.24-11.99-47.13-35-59.14C72.41,2.99,48.36,5.19,28.22,20.41,11.07,33.27,2.59,51.16,3,73.57c.21,14,.17,28.23,.13,42-.02,5.48-.03,10.95-.03,16.43h2.59c0-5.47,.02-10.95,.03-16.42Z"/>
  <path d="M116.7,71.04c-.14-15.64-6.49-29.54-17.88-39.15-11.3-9.53-26.1-13.66-40.63-11.32-25.09,4.11-42.36,24.39-42.99,50.45-.35,13.59-.26,27.39-.18,40.74,.04,6.03,.08,12.06,.08,18.09,0,.78-.01,1.48-.04,2.15h2.59c.03-.68,.05-1.39,.05-2.15,0-6.04-.04-12.07-.08-18.11-.08-13.33-.17-27.11,.17-40.66,.59-24.78,17-44.05,40.81-47.95,13.78-2.22,27.82,1.69,38.54,10.74,10.8,9.12,16.83,22.32,16.96,37.19,.2,20.31,.1,40.96,0,60.94h2.59c.1-19.98,.2-40.64,0-60.96Z"/>
  <path d="M104.12,90.75c-.01-7.33-.02-14.67-.02-22,0-18.2-17.18-35.5-36.04-36.29-10.89-.48-21.12,3.42-28.77,10.97-7.78,7.69-12.04,18.47-11.68,29.56,.36,11.5,.29,23.2,.21,34.52-.05,7.55-.1,15.36-.02,23.05,0,.49-.03,.96-.05,1.44h2.62c.02-.48,.02-.97,.02-1.46-.08-7.67-.03-15.46,.02-23.01,.07-11.34,.14-23.07-.22-34.62-.34-10.38,3.64-20.45,10.91-27.64,7.12-7.04,16.65-10.67,26.84-10.22,17.56,.74,33.56,16.81,33.56,33.71,0,7.33,.01,14.67,.02,22,.02,13.52,.04,27.47-.01,41.25h2.59c.05-13.78,.03-27.73,.01-41.25Z"/>
  <path d="M91.89,69.31c-.42-13.2-8.44-21.87-22.56-24.43-11.63-2.12-23.29,4.95-27.75,16.82-1.02,2.71-1.48,5.5-1.38,8.26,.04,6.82,.02,13.76,0,20.48-.03,11.78-.06,23.96,.2,35.94,.04,1.95-.03,3.81-.15,5.62h2.6c.12-1.84,.18-3.72,.14-5.68-.25-11.96-.22-24.12-.2-35.88,.02-6.72,.03-13.66,0-20.54-.09-2.45,.32-4.91,1.22-7.3,4.01-10.7,14.47-17.08,24.86-15.18,12.98,2.35,20.05,9.95,20.44,21.97,.55,16.64,.42,33.58,.29,49.96-.03,4.22-.06,8.44-.09,12.65h2.59c.02-4.21,.05-8.42,.09-12.63,.13-16.4,.26-33.37-.29-50.06Z"/>
  <path d="M79.4,125.74c-.07-11.86-.04-23.92-.02-35.59,.01-5.93,.02-11.87,.02-17.8,0-9.03-5.34-15.1-13.3-15.1-8.44,0-13.9,5.93-13.9,15.1v58.2c0,.49-.03,.97-.04,1.45h2.61c0-.48,.02-.96,.02-1.45v-58.2c0-7.71,4.33-12.5,11.3-12.5,6.5,0,10.7,4.91,10.7,12.5,0,5.93-.01,11.87-.02,17.8-.02,11.67-.04,23.74,.02,35.6,0,2.06,.18,4.12,.36,6.11,0,.05,0,.09,.01,.14h2.6c-.01-.12-.02-.24-.03-.37-.17-1.94-.35-3.94-.35-5.89Z"/>
  <path d="M67.87,104.93c-.11-5.57-.22-11.33-.16-16.95,.02-1.28,.08-2.56,.13-3.83,.19-4.35,.38-8.84-.67-13.36-.2-.87-1.07-1.42-1.94-1.21-.87,.2-1.41,1.07-1.21,1.94,.95,4.09,.78,8.17,.59,12.49-.06,1.3-.11,2.61-.13,3.92-.07,5.69,.05,11.47,.16,17.07,.17,8.88,.34,18-.2,27h3.25c.53-9.06,.37-18.18,.19-27.07Z"/>
</svg>