<?xml version="1.0" encoding="UTF-8"?>
<svg id="Layer_4" data-name="Layer 4" xmlns="http://www.w3.org/2000/svg" viewBox="0 0 132 132">
  <path d="M68.71,121.83c-.62,0-1.24-.01-1.87-.04-16.46-.71-29.86-8.84-38.76-23.52-11.66-19.29-12-38.77-1.02-57.92,10.28-17.97,26.77-27.38,47.74-27.15,20.13,.3,36.82,9.84,48.28,27.59,.39,.6,.21,1.4-.39,1.79-.6,.39-1.4,.22-1.79-.39-11.12-17.23-26.64-26.12-46.13-26.41-19.91-.22-35.67,8.74-45.46,25.85-10.48,18.27-10.15,36.87,.98,55.29,8.54,14.1,20.87,21.6,36.65,22.28,17.35,.71,32.64-9.14,39.75-25.72,8.41-19.55-.03-43.3-18.8-52.94-8.48-4.39-18.06-4.3-26.99,.22-9.13,4.63-15.66,13.03-17.04,21.92-2.6,15.97,7.76,31.2,18.76,34.15,8.75,2.3,19.62-.43,24.16-11.73,3.89-9.79,.35-20.38-8.42-25.18-3.94-2.19-8.85-.81-11.94,3.34-1.26,1.62-1.75,4.4-1.28,7.11,.42,2.35,1.5,4.24,2.99,5.19,.4,.22,.69,.53,.92,.78,.1,.11,.19,.22,.3,.3,.57,.43,.69,1.24,.26,1.81-.43,.57-1.24,.69-1.81,.26-.27-.2-.48-.43-.65-.62-.09-.09-.22-.24-.27-.27-2.24-1.4-3.73-3.87-4.29-7.01-.61-3.45,.07-6.95,1.77-9.13,3.87-5.2,10.15-6.87,15.25-4.04,9.93,5.44,13.96,17.39,9.58,28.41-5.1,12.7-17.69,15.78-27.23,13.27-13.62-3.65-23.26-20.97-20.65-37.06,1.51-9.69,8.57-18.82,18.43-23.83,9.55-4.85,20.25-4.92,29.35-.22,19.96,10.25,28.93,35.49,19.99,56.26-7.29,16.99-22.65,27.32-40.37,27.32Z"/>
  <path d="M67.93,110.78c-6.42,0-12.68-1.88-17.97-5.51-16.49-11.23-22.86-26.99-18.94-46.82,2.59-12.71,11.34-23.9,23.41-29.94,12.04-6.03,25.75-6.28,37.62-.68,20.31,9.55,30.82,26.29,31.24,49.75,.01,.72-.56,1.31-1.27,1.32-.72,0-1.31-.56-1.32-1.27-.4-22.39-10.41-38.35-29.76-47.45-11.15-5.26-24.03-5.02-35.35,.65-11.36,5.69-19.59,16.21-22.03,28.14-3.7,18.71,2.31,33.57,17.86,44.17,7.02,4.82,15.93,6.28,24.45,4.01,8.87-2.37,16.29-8.56,20.35-17,3.5-7.26,3.8-15.67,.83-23.68-2.83-7.64-8.25-13.84-14.48-16.57-8-3.48-17.31-1.71-23.14,4.41-5.71,5.99-7.13,15.72-3.38,23.12,1.76,3.52,4.42,6.22,7.71,7.82,4.93,2.46,7.95,1.86,11.56-2.29,2.98-3.43,3.14-7.73,.43-11.49-.51-.73-1.25-1.38-1.97-2l-.44-.39c-.54-.48-.58-1.29-.11-1.83,.48-.54,1.29-.58,1.83-.11l.42,.37c.8,.69,1.7,1.48,2.38,2.45,3.4,4.72,3.18,10.36-.58,14.69-4.35,5-8.73,5.87-14.66,2.91-3.79-1.84-6.87-4.95-8.88-8.98-4.22-8.34-2.62-19.31,3.82-26.07,6.59-6.9,17.06-8.91,26.06-4.99,6.87,3.01,12.81,9.75,15.88,18.04,3.21,8.68,2.88,17.81-.93,25.71-4.39,9.12-12.41,15.82-22.02,18.38-2.85,.76-5.75,1.13-8.61,1.14Z"/>
  <path d="M52.29,130.3c-.17,0-.35-.04-.52-.11-.99-.43-1.98-.85-2.97-1.26-3.11-1.3-6.33-2.65-9.3-4.53-15.55-9.77-25.37-23.3-29.17-40.21-5.63-24.8,.62-46.17,18.56-63.52C53.85-3.47,93.55-3.74,119.27,20.05c.53,.49,.56,1.31,.07,1.83-.49,.53-1.31,.56-1.83,.07C92.8-.91,54.66-.65,30.69,22.53,13.44,39.2,7.44,59.75,12.85,83.62c3.64,16.21,13.07,29.19,28.03,38.59,2.79,1.76,5.77,3.01,8.92,4.33,1,.42,2.01,.84,3.01,1.28,.66,.29,.95,1.05,.67,1.71-.21,.49-.69,.78-1.19,.78Z"/>
</svg>